<svg width="91" height="21" viewBox="0 0 91 21" fill="none" xmlns="http://www.w3.org/2000/svg">
<g clip-path="url(#clip0_1_7)">
<path d="M19.4297 2.73274C19.4297 1.93085 19.9585 1.39195 20.789 1.39195C21.6194 1.39195 22.1482 1.93085 22.1482 2.73274V11.1267H26.6937C27.4716 11.1267 28.1054 11.519 28.1054 12.2562C28.1054 12.9934 27.476 13.3857 26.6937 13.3857H21.0206C20.0591 13.3857 19.4297 13.0107 19.4297 11.8165V2.73274Z" fill="#00AFE3"/>
<path d="M33.3861 4.61656C36.3057 4.61656 37.866 6.58247 37.866 9.10022C37.866 11.4886 36.686 13.6011 33.3861 13.6011C30.0863 13.6011 28.9062 11.4886 28.9062 9.10022C28.9062 6.57816 30.4666 4.61656 33.3861 4.61656ZM33.3861 11.8335C34.8284 11.8335 35.4447 10.5574 35.4447 9.10022C35.4447 7.54387 34.7979 6.38416 33.3861 6.38416C31.9744 6.38416 31.3276 7.54818 31.3276 9.10022C31.3276 10.5574 31.9395 11.8335 33.3861 11.8335Z" fill="#00AFE3"/>
<path d="M43.5064 4.61656C45.53 4.61656 47.0422 5.7461 47.0422 6.85839C47.0422 7.54387 46.5265 7.88877 45.9146 7.88877C44.7695 7.88877 45.1847 6.48331 43.4408 6.48331C42.4968 6.48331 41.3823 7.12137 41.3823 9.28129C41.3823 10.7687 42.0947 11.7344 43.4233 11.7344C45.1148 11.7344 44.752 10.1953 46.0282 10.1953C46.6401 10.1953 47.0422 10.635 47.0422 11.1136C47.0422 12.1612 45.849 13.6011 43.3578 13.6011C40.3727 13.6011 38.9609 11.7861 38.9609 9.28129C38.9609 6.53074 40.5387 4.61656 43.5064 4.61656Z" fill="#00AFE3"/>
<path d="M56.3807 11.0795C56.3807 12.0797 56.6299 12.3082 56.6299 12.6832C56.6299 13.2221 56.1141 13.6015 55.5328 13.6015C54.4883 13.6015 54.1386 12.9462 54.108 12.209C53.164 13.2394 52.0669 13.6015 50.7907 13.6015C49.414 13.6015 48.0547 12.6703 48.0547 11.1614C48.0547 9.18254 49.58 8.62639 51.4376 8.41083L52.9148 8.24701C53.4961 8.18234 53.9594 8.04869 53.9594 7.36321C53.9594 6.67772 53.247 6.38025 52.4341 6.38025C50.6421 6.38025 50.594 7.69086 49.6281 7.69086C49.0162 7.69086 48.601 7.26405 48.601 6.77257C48.601 5.8241 49.9603 4.61265 52.4515 4.61265C54.7723 4.61265 56.3851 5.34987 56.3851 7.06573V11.0752L56.3807 11.0795ZM53.9594 9.36361C53.6928 9.60935 53.1945 9.69126 52.9148 9.73869L52.0363 9.86802C51.0223 10.0146 50.476 10.325 50.476 11.045C50.476 11.5839 50.9917 12.0279 51.8178 12.0279C53.1465 12.0279 53.9594 11.1786 53.9594 10.2948V9.36361Z" fill="#00AFE3"/>
<path d="M58.5938 2.58616C58.5938 1.80151 59.0745 1.39195 59.8044 1.39195C60.5343 1.39195 61.0151 1.80151 61.0151 2.58616V12.4071C61.0151 13.1917 60.5343 13.6013 59.8044 13.6013C59.0745 13.6013 58.5938 13.1917 58.5938 12.4071V2.58616Z" fill="#00AFE3"/>
<path d="M64.4272 1.3275C65.1221 1.3275 65.6903 1.88364 65.6903 2.57344C65.6903 3.26323 65.1265 3.81938 64.4272 3.81938C63.7279 3.81938 63.1641 3.26323 63.1641 2.57344C63.1641 1.88364 63.7279 1.3275 64.4272 1.3275ZM63.2165 5.81116C63.2165 5.1731 63.4831 4.61695 64.4272 4.61695C65.3712 4.61695 65.6378 5.1731 65.6378 5.81116V12.4073C65.6378 13.0454 65.3712 13.6015 64.4272 13.6015C63.4831 13.6015 63.2165 13.0454 63.2165 12.4073V5.81116Z" fill="#00AFE3"/>
<path d="M70.9445 4.61696C72.7845 4.61696 74.6464 5.33694 74.6464 6.43198C74.6464 6.98813 74.2662 7.47961 73.6324 7.47961C72.6884 7.47961 72.6534 6.38456 71.1281 6.38456C70.2802 6.38456 69.7338 6.61306 69.7338 7.12178C69.7338 7.67793 70.2802 7.80726 71.0275 7.97109L72.0415 8.19958C73.4183 8.50999 75.0616 9.08338 75.0616 10.7518C75.0616 12.7005 73.1517 13.6015 71.3291 13.6015C69.1394 13.6015 67.3125 12.6358 67.3125 11.4589C67.3125 10.9372 67.6097 10.4587 68.2915 10.4587C69.3361 10.4587 69.4366 11.9331 71.2286 11.9331C72.0896 11.9331 72.6403 11.558 72.6403 11.0665C72.6403 10.463 72.1114 10.3638 71.2461 10.1483L69.8212 9.80336C68.4095 9.45846 67.3169 8.88507 67.3169 7.28129C67.3169 5.33262 69.2749 4.61265 70.9489 4.61265L70.9445 4.61696Z" fill="#00AFE3"/>
<path d="M77.2361 6.40169H76.8209C76.1391 6.40169 75.8594 6.13871 75.8594 5.61705C75.8594 5.09539 76.1435 4.83241 76.8209 4.83241H77.2361V3.37522C77.2361 2.59058 77.7169 2.18101 78.4468 2.18101C79.1767 2.18101 79.6575 2.59058 79.6575 3.37522V4.83241H80.3873C81.0998 4.83241 81.4844 5.04366 81.4844 5.61705C81.4844 6.19044 81.1041 6.40169 80.3873 6.40169H79.6575V11.1828C79.6575 11.545 79.8585 11.739 80.2868 11.739H80.6365C81.1653 11.739 81.4844 12.0321 81.4844 12.5409C81.4844 13.2263 80.8856 13.6057 79.7274 13.6057C77.9704 13.6057 77.2405 12.8858 77.2405 11.476V6.40169H77.2361Z" fill="#00AFE3"/>
<path d="M85.9914 4.61696C87.8314 4.61696 89.6933 5.33694 89.6933 6.43198C89.6933 6.98813 89.313 7.47961 88.6793 7.47961C87.7352 7.47961 87.7003 6.38456 86.1749 6.38456C85.327 6.38456 84.7807 6.61306 84.7807 7.12178C84.7807 7.67793 85.327 7.80726 86.0744 7.97109L87.0884 8.19958C88.4651 8.50999 90.1085 9.08338 90.1085 10.7518C90.1085 12.7005 88.1985 13.6015 86.376 13.6015C84.1863 13.6015 82.3594 12.6358 82.3594 11.4589C82.3594 10.9372 82.6566 10.4587 83.3384 10.4587C84.383 10.4587 84.4835 11.9331 86.2755 11.9331C87.1365 11.9331 87.6872 11.558 87.6872 11.0665C87.6872 10.463 87.1583 10.3638 86.2929 10.1483L84.8681 9.80336C83.4564 9.45846 82.3637 8.88507 82.3637 7.28129C82.3637 5.33262 84.3218 4.61265 85.9957 4.61265L85.9914 4.61696Z" fill="#00AFE3"/>
<path d="M19.4609 20.319V16.6459H21.6025V17.2192H20.1384V18.2582H21.3709V18.8316H20.1384V20.3147H19.4609V20.319Z" fill="black"/>
<path d="M22.1094 17.2263V16.64H22.7737V17.2263H22.1094ZM22.1094 20.3175V17.679H22.7737V20.3175H22.1094Z" fill="black"/>
<path d="M23.4844 20.3193V17.6808H24.1225V17.9912L24.1137 18.1766H24.1225C24.1924 18.0343 24.3061 17.905 24.4678 17.7929C24.6295 17.6765 24.8305 17.6205 25.0709 17.6205C25.6915 17.6205 26.0062 17.9567 26.0062 18.625V20.3236H25.3419V18.7629C25.3419 18.5862 25.3113 18.4525 25.2501 18.362C25.1889 18.2715 25.0797 18.224 24.9223 18.224C24.6907 18.224 24.5071 18.3059 24.3629 18.4741C24.223 18.6379 24.1487 18.8448 24.1487 19.0906V20.3279H23.4844V20.3193Z" fill="black"/>
<path d="M26.5434 18.9998C26.5434 18.5859 26.6571 18.2539 26.88 17.9996C27.1072 17.7452 27.3957 17.6202 27.7541 17.6202C28.1125 17.6202 28.366 17.7366 28.5364 17.9651H28.5452C28.5364 17.922 28.5364 17.8702 28.5364 17.8099V16.6459H29.1964V20.319H28.5714V20.0905L28.5801 19.9267H28.5714C28.4927 20.0646 28.3747 20.1767 28.2261 20.2587C28.0775 20.3406 27.9114 20.3837 27.7235 20.3837C27.3651 20.3837 27.081 20.2543 26.8625 20C26.644 19.7456 26.5391 19.4137 26.5391 18.9998H26.5434ZM27.2165 18.9998C27.2165 19.2498 27.2777 19.4481 27.4001 19.599C27.5225 19.7499 27.6842 19.8275 27.8808 19.8275C28.0688 19.8275 28.2305 19.7586 28.3572 19.6163C28.484 19.474 28.5496 19.2671 28.5496 18.9912C28.5496 18.7713 28.4927 18.5816 28.3747 18.4178C28.2567 18.2539 28.095 18.1763 27.8808 18.1763C27.6929 18.1763 27.5312 18.2496 27.4044 18.3962C27.2777 18.5428 27.2121 18.7411 27.2121 18.9955L27.2165 18.9998Z" fill="black"/>
<path d="M31.3281 20.319V16.6459H32.0056V19.7456H33.614V20.319H31.3281Z" fill="black"/>
<path d="M34.2208 19.992C33.9367 19.7334 33.7969 19.4014 33.7969 19.0005C33.7969 18.5995 33.9367 18.2719 34.2208 18.0089C34.5049 17.7502 34.8502 17.6166 35.261 17.6166C35.6719 17.6166 36.0215 17.7459 36.3056 18.0089C36.5897 18.2676 36.7339 18.5995 36.7339 19.0005C36.7339 19.4014 36.5941 19.7291 36.31 19.992C36.0259 20.2507 35.6806 20.3844 35.2654 20.3844C34.8502 20.3844 34.5049 20.255 34.2208 19.992ZM34.47 19.0005C34.47 19.2419 34.5443 19.4402 34.6972 19.5911C34.8502 19.7463 35.0381 19.8196 35.261 19.8196C35.4839 19.8196 35.6719 19.742 35.8292 19.5911C35.9822 19.4359 36.0609 19.2419 36.0609 19.0005C36.0609 18.759 35.9822 18.565 35.8292 18.4098C35.6719 18.2546 35.4839 18.177 35.2654 18.177C35.0469 18.177 34.8589 18.2546 34.706 18.4098C34.553 18.565 34.4743 18.7633 34.4743 19.0005H34.47Z" fill="black"/>
<path d="M37.125 19.0001C37.125 18.612 37.2605 18.2887 37.5271 18.0214C37.7937 17.7541 38.1434 17.6205 38.5804 17.6205C38.7727 17.6205 38.9607 17.655 39.1486 17.7196C39.3322 17.7843 39.4895 17.8834 39.6119 18.0128L39.3147 18.4612C39.1224 18.2715 38.8907 18.1766 38.6241 18.1766C38.3837 18.1766 38.1871 18.2542 38.0385 18.4137C37.8899 18.5689 37.8112 18.7629 37.8112 18.9957C37.8112 19.2285 37.8899 19.4226 38.0428 19.5821C38.1958 19.7416 38.3969 19.8235 38.646 19.8235C38.9344 19.8235 39.1967 19.7114 39.4327 19.4872L39.6906 19.9528C39.5638 20.0822 39.4021 20.1899 39.2054 20.2675C39.0087 20.3452 38.8033 20.384 38.5892 20.384C38.1565 20.384 37.8068 20.2503 37.5358 19.9873C37.2692 19.7243 37.1337 19.3967 37.1337 19.0001H37.125Z" fill="black"/>
<path d="M39.9531 19.5899C39.9531 19.4045 40.0056 19.245 40.1061 19.1156C40.211 18.9863 40.3465 18.8872 40.5169 18.8268C40.6874 18.7664 40.8491 18.7233 41.0108 18.7018C41.1682 18.6759 41.3386 18.6673 41.5134 18.6673H41.6271V18.6328C41.6271 18.3224 41.461 18.1672 41.1244 18.1672C40.8797 18.1672 40.6306 18.2534 40.3814 18.4215L40.1367 17.9516C40.2503 17.8611 40.4077 17.7835 40.6043 17.7231C40.801 17.6585 40.9933 17.6283 41.1856 17.6283C41.5353 17.6283 41.8063 17.7188 42.0029 17.9042C42.1996 18.0896 42.2958 18.3482 42.2958 18.6759V20.3271H41.6751V20.1029L41.6926 19.9132H41.6839C41.6009 20.0555 41.4828 20.1676 41.3342 20.2581C41.1856 20.3443 41.0196 20.3918 40.8404 20.3918C40.5912 20.3918 40.3814 20.3185 40.2154 20.1719C40.0449 20.0253 39.9619 19.8356 39.9619 19.5985L39.9531 19.5899ZM40.6175 19.5295C40.6175 19.6244 40.6524 19.702 40.7267 19.771C40.7967 19.8399 40.8972 19.8744 41.0239 19.8744C41.2031 19.8744 41.3474 19.8011 41.4654 19.6589C41.5834 19.5166 41.6402 19.3571 41.6402 19.1846V19.1113H41.5266C40.9234 19.1113 40.6262 19.2493 40.6262 19.5295H40.6175Z" fill="black"/>
<path d="M42.9809 19.4956V16.6459H43.6409V19.3964C43.6409 19.5344 43.6628 19.6292 43.7065 19.681C43.7502 19.7327 43.8201 19.7586 43.9119 19.7586C43.9556 19.7586 43.9862 19.7586 44.0124 19.7542V20.3276C43.9162 20.3363 43.8463 20.3449 43.8026 20.3449C43.6933 20.3449 43.5972 20.3363 43.5142 20.3147C43.4311 20.2931 43.3437 20.2587 43.2563 20.2069C43.1689 20.1552 43.0989 20.0646 43.0509 19.9439C43.0028 19.8232 42.9766 19.6723 42.9766 19.4956H42.9809Z" fill="black"/>
<path d="M45.8984 20.319V16.6459H47.3364C47.686 16.6459 47.9701 16.7579 48.193 16.9778C48.4159 17.1977 48.5252 17.4865 48.5252 17.8401C48.5252 18.1936 48.4159 18.4867 48.193 18.7109C47.9745 18.9351 47.686 19.0515 47.3364 19.0515H46.5759V20.319H45.8984ZM46.5759 18.4695H47.2096C47.4063 18.4695 47.5593 18.4135 47.6685 18.297C47.7778 18.185 47.8346 18.0298 47.8346 17.8357C47.8346 17.6417 47.7778 17.4952 47.6685 17.3831C47.5593 17.271 47.4107 17.2149 47.2184 17.2149H46.5715V18.4652L46.5759 18.4695Z" fill="black"/>
<path d="M49 20.3192V17.6807H49.6381V18.1464L49.6294 18.3274H49.6381C49.6993 18.1334 49.8086 17.9739 49.9615 17.8403C50.1145 17.7109 50.2893 17.6419 50.486 17.6419C50.5122 17.6419 50.5559 17.6419 50.6128 17.6506V18.2973C50.5778 18.2886 50.5253 18.2886 50.451 18.2886C50.1932 18.2886 49.9965 18.3835 49.8654 18.5689C49.7343 18.7542 49.6643 18.9827 49.6643 19.25V20.3149H49V20.3192Z" fill="black"/>
<path d="M51.2755 19.992C50.9914 19.7334 50.8516 19.4014 50.8516 19.0005C50.8516 18.5995 50.9914 18.2719 51.2755 18.0089C51.5596 17.7502 51.9049 17.6166 52.3157 17.6166C52.7266 17.6166 53.0762 17.7459 53.3603 18.0089C53.6444 18.2676 53.7886 18.5995 53.7886 19.0005C53.7886 19.4014 53.6488 19.7291 53.3647 19.992C53.0806 20.2507 52.7353 20.3844 52.3201 20.3844C51.9049 20.3844 51.5596 20.255 51.2755 19.992ZM51.529 19.0005C51.529 19.2419 51.6033 19.4402 51.7563 19.5911C51.9093 19.7463 52.0972 19.8196 52.3201 19.8196C52.543 19.8196 52.7309 19.742 52.8883 19.5911C53.0412 19.4359 53.1199 19.2419 53.1199 19.0005C53.1199 18.759 53.0412 18.565 52.8883 18.4098C52.7309 18.2546 52.543 18.177 52.3245 18.177C52.1059 18.177 51.918 18.2546 51.765 18.4098C51.6121 18.565 51.5334 18.7633 51.5334 19.0005H51.529Z" fill="black"/>
<path d="M54.4572 20.3187V18.2407H54.125V17.719H54.4572V17.6069C54.4572 17.4431 54.4834 17.2965 54.5402 17.1758C54.5927 17.0551 54.6582 16.9602 54.7369 16.8913C54.8156 16.8223 54.9073 16.7705 55.0122 16.7274C55.1171 16.6843 55.2133 16.6585 55.2963 16.6455C55.3794 16.6326 55.4668 16.6283 55.5542 16.6283C55.6503 16.6283 55.729 16.6326 55.7815 16.6455V17.206C55.7552 17.1974 55.7072 17.1974 55.646 17.1974C55.3007 17.1974 55.1259 17.3396 55.1259 17.6285V17.7276H55.7028V18.2493H55.1259V20.3273H54.4615L54.4572 20.3187Z" fill="black"/>
<path d="M55.9609 19.0001C55.9609 18.5948 56.0877 18.2628 56.3412 18.0042C56.5947 17.7455 56.9225 17.6205 57.3246 17.6205C57.6961 17.6205 57.9845 17.7369 58.1943 17.974C58.4041 18.2111 58.509 18.5086 58.509 18.8707C58.509 18.9311 58.5003 19.013 58.4872 19.1251H56.6471C56.669 19.345 56.752 19.5174 56.905 19.6381C57.0536 19.7588 57.2372 19.8235 57.4513 19.8235C57.7179 19.8235 57.9714 19.7286 58.2162 19.5346L58.4784 20.0046C58.3473 20.121 58.1812 20.2158 57.9889 20.2805C57.7966 20.3495 57.5999 20.3796 57.4032 20.3796C56.9749 20.3796 56.6253 20.246 56.3587 19.9787C56.0921 19.7114 55.9609 19.3838 55.9609 19.0001ZM56.6646 18.6724H57.8447C57.8447 18.5 57.7879 18.362 57.6917 18.2628C57.5912 18.1637 57.4644 18.1119 57.3115 18.1119C57.1454 18.1119 57.0012 18.1637 56.8875 18.2628C56.7739 18.3663 56.6996 18.5 56.669 18.6681L56.6646 18.6724Z" fill="black"/>
<path d="M58.8559 19.9905L59.1531 19.5551C59.3673 19.7491 59.6208 19.8439 59.9136 19.8439C60.0316 19.8439 60.1234 19.8224 60.189 19.7749C60.2545 19.7275 60.2851 19.6628 60.2851 19.5809C60.2851 19.5033 60.2414 19.4387 60.1496 19.3826C60.0579 19.3266 59.9486 19.2748 59.8218 19.2231C59.6951 19.1714 59.564 19.1196 59.4329 19.0636C59.3017 19.0075 59.1881 18.9256 59.0963 18.8135C59.0045 18.7014 58.9608 18.5635 58.9608 18.404C58.9608 18.1539 59.057 17.9599 59.2537 17.8219C59.446 17.684 59.6907 17.6107 59.9836 17.6107C60.3551 17.6107 60.6566 17.7099 60.8839 17.9125L60.6391 18.3738C60.5605 18.3091 60.46 18.2531 60.3332 18.21C60.2065 18.1668 60.0841 18.1453 59.9617 18.1453C59.7126 18.1453 59.5902 18.2272 59.5902 18.391C59.5902 18.4643 59.6383 18.529 59.7301 18.5807C59.8218 18.6325 59.9355 18.6842 60.0666 18.7359C60.1977 18.7877 60.3245 18.8351 60.4556 18.8868C60.5867 18.9386 60.696 19.0205 60.7834 19.1412C60.8708 19.2576 60.9145 19.3999 60.9145 19.5637C60.9145 19.7965 60.8227 19.9905 60.6348 20.1457C60.4512 20.3009 60.2065 20.3742 59.9005 20.3742C59.4722 20.3742 59.1225 20.2449 58.8516 19.9862L58.8559 19.9905Z" fill="black"/>
<path d="M61.2466 19.9905L61.5438 19.5551C61.7579 19.7491 62.0114 19.8439 62.3043 19.8439C62.4223 19.8439 62.514 19.8224 62.5796 19.7749C62.6452 19.7275 62.6758 19.6628 62.6758 19.5809C62.6758 19.5033 62.632 19.4387 62.5403 19.3826C62.4485 19.3266 62.3392 19.2748 62.2125 19.2231C62.0857 19.1714 61.9546 19.1196 61.8235 19.0636C61.6924 19.0075 61.5787 18.9256 61.4869 18.8135C61.3952 18.7014 61.3515 18.5635 61.3515 18.404C61.3515 18.1539 61.4476 17.9599 61.6443 17.8219C61.8366 17.684 62.0814 17.6107 62.3742 17.6107C62.7457 17.6107 63.0473 17.7099 63.2745 17.9125L63.0298 18.3738C62.9511 18.3091 62.8506 18.2531 62.7238 18.21C62.5971 18.1668 62.4747 18.1453 62.3523 18.1453C62.1032 18.1453 61.9808 18.2272 61.9808 18.391C61.9808 18.4643 62.0289 18.529 62.1207 18.5807C62.2125 18.6325 62.3261 18.6842 62.4572 18.7359C62.5883 18.7877 62.7151 18.8351 62.8462 18.8868C62.9773 18.9386 63.0866 19.0205 63.174 19.1412C63.2614 19.2576 63.3051 19.3999 63.3051 19.5637C63.3051 19.7965 63.2133 19.9905 63.0254 20.1457C62.8418 20.3009 62.5971 20.3742 62.2911 20.3742C61.8628 20.3742 61.5132 20.2449 61.2422 19.9862L61.2466 19.9905Z" fill="black"/>
<path d="M63.8594 17.2283V16.6419H64.5237V17.2283H63.8594ZM63.8594 20.3194V17.681H64.5237V20.3194H63.8594Z" fill="black"/>
<path d="M65.5021 19.9901C65.218 19.7314 65.0781 19.3994 65.0781 18.9985C65.0781 18.5976 65.218 18.2699 65.5021 18.0069C65.7862 17.7483 66.1314 17.6146 66.5423 17.6146C66.9531 17.6146 67.3028 17.7439 67.5869 18.0069C67.871 18.2656 68.0152 18.5976 68.0152 18.9985C68.0152 19.3994 67.8753 19.7271 67.5912 19.9901C67.3071 20.2488 66.9619 20.3824 66.5467 20.3824C66.1314 20.3824 65.7862 20.2531 65.5021 19.9901ZM65.7512 18.9985C65.7512 19.2399 65.8255 19.4382 65.9785 19.5891C66.1315 19.7443 66.3194 19.8176 66.5423 19.8176C66.7652 19.8176 66.9531 19.74 67.1105 19.5891C67.2634 19.4339 67.3421 19.2399 67.3421 18.9985C67.3421 18.7571 67.2634 18.5631 67.1105 18.4079C66.9531 18.2527 66.7652 18.1751 66.5467 18.1751C66.3281 18.1751 66.1402 18.2527 65.9872 18.4079C65.8342 18.5631 65.7556 18.7614 65.7556 18.9985H65.7512Z" fill="black"/>
<path d="M68.5625 20.3193V17.6808H69.2006V17.9912L69.1919 18.1766H69.2006C69.2705 18.0343 69.3842 17.905 69.5459 17.7929C69.7076 17.6765 69.9087 17.6205 70.149 17.6205C70.7697 17.6205 71.0844 17.9567 71.0844 18.625V20.3236H70.42V18.7629C70.42 18.5862 70.3894 18.4525 70.3282 18.362C70.267 18.2715 70.1578 18.224 70.0004 18.224C69.7688 18.224 69.5852 18.3059 69.441 18.4741C69.3011 18.6379 69.2268 18.8448 69.2268 19.0906V20.3279H68.5625V20.3193Z" fill="black"/>
<path d="M71.5781 19.5899C71.5781 19.4045 71.6306 19.245 71.7311 19.1156C71.836 18.9863 71.9715 18.8872 72.1419 18.8268C72.3124 18.7664 72.4741 18.7233 72.6358 18.7018C72.7932 18.6759 72.9636 18.6673 73.1384 18.6673H73.2521V18.6328C73.2521 18.3224 73.086 18.1672 72.7494 18.1672C72.5047 18.1672 72.2556 18.2534 72.0064 18.4215L71.7617 17.9516C71.8753 17.8611 72.0327 17.7835 72.2294 17.7231C72.426 17.6585 72.6183 17.6283 72.8106 17.6283C73.1603 17.6283 73.4313 17.7188 73.628 17.9042C73.8246 18.0896 73.9208 18.3482 73.9208 18.6759V20.3271H73.3002V20.1029L73.3176 19.9132H73.3089C73.2259 20.0555 73.1078 20.1676 72.9592 20.2581C72.8106 20.3443 72.6446 20.3918 72.4654 20.3918C72.2162 20.3918 72.0064 20.3185 71.8404 20.1719C71.6699 20.0253 71.5869 19.8356 71.5869 19.5985L71.5781 19.5899ZM72.2381 19.5295C72.2381 19.6244 72.2731 19.702 72.3474 19.771C72.4173 19.8399 72.5178 19.8744 72.6446 19.8744C72.8238 19.8744 72.968 19.8011 73.086 19.6589C73.204 19.5166 73.2608 19.3571 73.2608 19.1846V19.1113H73.1472C72.544 19.1113 72.2468 19.2493 72.2468 19.5295H72.2381Z" fill="black"/>
<path d="M74.5981 19.4956V16.6459H75.2581V19.3964C75.2581 19.5344 75.2799 19.6292 75.3237 19.681C75.3674 19.7327 75.4373 19.7586 75.5291 19.7586C75.5728 19.7586 75.6034 19.7586 75.6296 19.7542V20.3276C75.5334 20.3363 75.4635 20.3449 75.4198 20.3449C75.3105 20.3449 75.2144 20.3363 75.1313 20.3147C75.0483 20.2931 74.9609 20.2587 74.8735 20.2069C74.7861 20.1552 74.7161 20.0646 74.6681 19.9439C74.62 19.8232 74.5938 19.6723 74.5938 19.4956H74.5981Z" fill="black"/>
<path d="M75.895 19.9905L76.1922 19.5551C76.4064 19.7491 76.6599 19.8439 76.9527 19.8439C77.0707 19.8439 77.1625 19.8224 77.228 19.7749C77.2936 19.7275 77.3242 19.6628 77.3242 19.5809C77.3242 19.5033 77.2805 19.4387 77.1887 19.3826C77.0969 19.3266 76.9877 19.2748 76.8609 19.2231C76.7342 19.1714 76.603 19.1196 76.4719 19.0636C76.3408 19.0075 76.2272 18.9256 76.1354 18.8135C76.0436 18.7014 75.9999 18.5635 75.9999 18.404C75.9999 18.1539 76.096 17.9599 76.2927 17.8219C76.485 17.684 76.7298 17.6107 77.0226 17.6107C77.3941 17.6107 77.6957 17.7099 77.923 17.9125L77.6782 18.3738C77.5995 18.3091 77.499 18.2531 77.3723 18.21C77.2455 18.1668 77.1231 18.1453 77.0008 18.1453C76.7516 18.1453 76.6293 18.2272 76.6293 18.391C76.6293 18.4643 76.6773 18.529 76.7691 18.5807C76.8609 18.6325 76.9745 18.6842 77.1057 18.7359C77.2368 18.7877 77.3635 18.8351 77.4946 18.8868C77.6258 18.9386 77.735 19.0205 77.8224 19.1412C77.9099 19.2576 77.9536 19.3999 77.9536 19.5637C77.9536 19.7965 77.8618 19.9905 77.6738 20.1457C77.4903 20.3009 77.2455 20.3742 76.9396 20.3742C76.5113 20.3742 76.1616 20.2449 75.8906 19.9862L75.895 19.9905Z" fill="black"/>
<path d="M78.5 19.1294V18.556H80.0734V19.1294H78.5Z" fill="black"/>
<path d="M80.8672 20.319V16.6459H83.0088V17.2192H81.5446V18.2582H82.7772V18.8316H81.5446V20.3147H80.8672V20.319Z" fill="black"/>
<path d="M83.1406 19.5899C83.1406 19.4045 83.1931 19.245 83.2936 19.1156C83.3985 18.9863 83.534 18.8872 83.7044 18.8268C83.8749 18.7664 84.0366 18.7233 84.1983 18.7018C84.3557 18.6759 84.5261 18.6673 84.7009 18.6673H84.8146V18.6328C84.8146 18.3224 84.6485 18.1672 84.312 18.1672C84.0672 18.1672 83.8181 18.2534 83.569 18.4215L83.3242 17.9516C83.4378 17.8611 83.5952 17.7835 83.7919 17.7231C83.9885 17.6585 84.1808 17.6283 84.3731 17.6283C84.7228 17.6283 84.9938 17.7188 85.1905 17.9042C85.3871 18.0896 85.4833 18.3482 85.4833 18.6759V20.3271H84.8627V20.1029L84.8801 19.9132H84.8714C84.7884 20.0555 84.6703 20.1676 84.5217 20.2581C84.3731 20.3443 84.2071 20.3918 84.0279 20.3918C83.7787 20.3918 83.5689 20.3185 83.4029 20.1719C83.2324 20.0253 83.1494 19.8356 83.1494 19.5985L83.1406 19.5899ZM83.805 19.5295C83.805 19.6244 83.8399 19.702 83.9142 19.771C83.9842 19.8399 84.0847 19.8744 84.2114 19.8744C84.3906 19.8744 84.5349 19.8011 84.6529 19.6589C84.7709 19.5166 84.8277 19.3571 84.8277 19.1846V19.1113H84.7141C84.1109 19.1113 83.8137 19.2493 83.8137 19.5295H83.805Z" fill="black"/>
<path d="M85.9497 19.9905L86.2469 19.5551C86.461 19.7491 86.7145 19.8439 87.0074 19.8439C87.1254 19.8439 87.2172 19.8224 87.2827 19.7749C87.3483 19.7275 87.3789 19.6628 87.3789 19.5809C87.3789 19.5033 87.3352 19.4387 87.2434 19.3826C87.1516 19.3266 87.0423 19.2748 86.9156 19.2231C86.7888 19.1714 86.6577 19.1196 86.5266 19.0636C86.3955 19.0075 86.2818 18.9256 86.1901 18.8135C86.0983 18.7014 86.0546 18.5635 86.0546 18.404C86.0546 18.1539 86.1507 17.9599 86.3474 17.8219C86.5397 17.684 86.7845 17.6107 87.0773 17.6107C87.4488 17.6107 87.7504 17.7099 87.9777 17.9125L87.7329 18.3738C87.6542 18.3091 87.5537 18.2531 87.427 18.21C87.3002 18.1668 87.1778 18.1453 87.0554 18.1453C86.8063 18.1453 86.6839 18.2272 86.6839 18.391C86.6839 18.4643 86.732 18.529 86.8238 18.5807C86.9156 18.6325 87.0292 18.6842 87.1603 18.7359C87.2915 18.7877 87.4182 18.8351 87.5493 18.8868C87.6805 18.9386 87.7897 19.0205 87.8771 19.1412C87.9645 19.2576 88.0082 19.3999 88.0082 19.5637C88.0082 19.7965 87.9165 19.9905 87.7285 20.1457C87.545 20.3009 87.3002 20.3742 86.9943 20.3742C86.5659 20.3742 86.2163 20.2449 85.9453 19.9862L85.9497 19.9905Z" fill="black"/>
<path d="M88.6968 19.3487V18.2364H88.3516V17.7148H88.7143V16.9603H89.3656V17.7148H89.9731V18.2364H89.3656V19.2668C89.3656 19.4565 89.4224 19.5858 89.5316 19.6591C89.6409 19.7324 89.7633 19.7669 89.8944 19.7669C89.9381 19.7669 89.9818 19.7669 90.0168 19.7583V20.3317C89.9119 20.3403 89.8419 20.3489 89.8114 20.3489C89.7196 20.3489 89.6322 20.3446 89.5491 20.3317C89.4661 20.3187 89.3699 20.2929 89.2607 20.2498C89.1514 20.2067 89.0596 20.1549 88.9809 20.0859C88.9023 20.017 88.8367 19.9221 88.7799 19.7971C88.7231 19.6721 88.6968 19.5255 88.6968 19.353V19.3487Z" fill="black"/>
<path d="M7.31135 1.01347C10.5106 1.6386 13.1461 4.96254 12.3682 8.09249C11.6907 10.8086 8.97219 14.6412 7.26764 16.9305C7.00103 17.2883 6.62516 17.8703 6.32796 18.1678C6.30173 18.1937 6.29299 18.2454 6.23618 18.2325C4.63215 16.1286 3.04125 13.96 1.7388 11.6579C0.296492 9.10993 -0.822389 6.85517 0.799114 4.03563C1.64265 2.56551 3.48268 1.34543 5.19597 1.01347C5.78163 0.90138 6.76939 0.905691 7.31135 1.01347ZM6.04824 3.49673C3.45209 3.64762 1.84369 6.41542 3.10681 8.68312C4.44859 11.0931 8.08932 11.0802 9.40925 8.65725C10.7292 6.23866 8.8061 3.33722 6.04824 3.49673Z" fill="#00AFE3"/>
<path d="M2.78696 19.1291L9.60077 19.1205C10.6497 19.2153 10.7328 20.569 9.71441 20.776H2.78259C1.81231 20.582 1.8298 19.3231 2.79134 19.1291H2.78696Z" fill="#00AFE3"/>
</g>
<defs>
<clipPath id="clip0_1_7">
<rect width="90.1049" height="19.8445" fill="white" transform="translate(0 0.932964)"/>
</clipPath>
</defs>
</svg>
